<svg width="225" height="71" viewBox="0 0 225 71" fill="none" xmlns="http://www.w3.org/2000/svg">
<path fill-rule="evenodd" clip-rule="evenodd" d="M72 1H1.5V69H72L72 57H73L73 69V70H72H1.5V70.0036H0.5V0.00361633H1V0H73V1V14H72V1ZM22.4365 22.0844L23 21L23.5635 22.0844L32.5 39.2828L41.4365 22.0844L42 21L42.5635 22.0844L57.0688 50L57.5885 51H56.4615H38.5885H37.4615H27.5385H26.4115H8.53849H7.41154L7.93116 50L22.4365 22.0844ZM23 23.1688L31.9365 40.3672L26.9312 50H9.0581L23 23.1688ZM32.5 41.4516L28.0581 50H36.9419L32.5 41.4516ZM33.0635 40.3672L38.0688 50H55.9419L42 23.1688L33.0635 40.3672ZM60.06 29.14L61.62 29.38V41.82L59.96 42.02V43H66.5V42.02L63.76 41.8V37.4C63.8533 37.4133 64.1 37.4333 64.5 37.46C64.9 37.4733 65.2933 37.48 65.68 37.48C66.8133 37.48 67.8133 37.2733 68.68 36.86C69.56 36.4467 70.2467 35.8467 70.74 35.06C71.2333 34.2733 71.48 33.3467 71.48 32.28C71.48 30.8533 71.08 29.7867 70.28 29.08C69.48 28.3733 68.1133 28.0133 66.18 28C65.54 28 64.86 28.0267 64.14 28.08C63.6733 28.12 63.2 28.14 62.72 28.14H60.06V29.14ZM65.68 36.4C64.7733 36.4 64.1333 36.3667 63.76 36.3V29.2C63.8533 29.2 64.0467 29.1867 64.34 29.16C64.82 29.1067 65.2733 29.08 65.7 29.08C66.9133 29.08 67.8067 29.3333 68.38 29.84C68.9533 30.3333 69.24 31.1533 69.24 32.3C69.24 33.7533 68.9067 34.8 68.24 35.44C67.5867 36.08 66.7333 36.4 65.68 36.4ZM74.5683 41.82L72.9083 42.02V43H78.6883V42.02L76.7083 41.82V36.46C76.9749 36.4733 77.8216 36.48 79.2483 36.48C79.5949 36.6533 79.9416 37.0533 80.2883 37.68C80.6483 38.2933 81.0683 39.1267 81.5483 40.18C81.9883 41.14 82.3416 41.8533 82.6083 42.32C82.8749 42.7733 83.1149 43 83.3283 43H86.0883V42.02L85.3083 41.82C85.1083 41.78 84.895 41.5867 84.6683 41.24C84.4549 40.8933 84.1416 40.3467 83.7283 39.6C83.1949 38.6133 82.7416 37.8467 82.3683 37.3C82.0083 36.74 81.6149 36.3467 81.1883 36.12C82.1083 35.84 82.8283 35.3067 83.3483 34.52C83.8816 33.7333 84.1483 32.8667 84.1483 31.92C84.1483 30.56 83.7283 29.5667 82.8883 28.94C82.0616 28.3 80.6683 27.98 78.7083 27.98C78.3349 27.98 77.8149 28.0067 77.1483 28.06C76.5083 28.1133 76.0016 28.14 75.6283 28.14H73.0083V29.12L74.5683 29.38V41.82ZM81.1083 34.56C80.615 35.12 79.9416 35.4 79.0883 35.4H77.9483C77.3216 35.4 76.9083 35.3933 76.7083 35.38V29.18C76.7883 29.18 76.9616 29.1667 77.2283 29.14C77.6549 29.0867 78.0816 29.06 78.5083 29.06C79.7349 29.06 80.5949 29.32 81.0883 29.84C81.5949 30.3467 81.8483 31.0867 81.8483 32.06C81.8483 33.1667 81.6016 34 81.1083 34.56ZM89.5903 42.28C90.537 42.9067 91.6903 43.22 93.0503 43.22C94.3303 43.22 95.4836 42.9 96.5103 42.26C97.5503 41.6067 98.3636 40.6933 98.9503 39.52C99.5503 38.3333 99.8503 36.96 99.8503 35.4C99.8503 33.08 99.297 31.2667 98.1903 29.96C97.097 28.64 95.5103 27.98 93.4303 27.98C92.1636 27.98 91.0236 28.3 90.0103 28.94C88.997 29.5667 88.197 30.46 87.6103 31.62C87.037 32.78 86.7503 34.1267 86.7503 35.66C86.7503 37.1667 86.9903 38.4933 87.4703 39.64C87.9503 40.7733 88.657 41.6533 89.5903 42.28ZM90.2503 30.72C90.997 29.5867 92.017 29.02 93.3103 29.02C94.6303 29.02 95.6503 29.5867 96.3703 30.72C97.0903 31.84 97.4503 33.4067 97.4503 35.42C97.4503 37.5933 97.0703 39.26 96.3103 40.42C95.5636 41.58 94.5503 42.16 93.2703 42.16C91.9636 42.16 90.9436 41.58 90.2103 40.42C89.4903 39.2467 89.1303 37.66 89.1303 35.66C89.1303 33.4867 89.5036 31.84 90.2503 30.72ZM101.964 44.8C101.497 45.2533 100.971 45.5667 100.384 45.74L100.924 46.58C101.991 46.3933 102.931 45.9533 103.744 45.26C104.557 44.5667 105.084 43.6867 105.324 42.62C105.417 42.1667 105.477 41.62 105.504 40.98C105.531 40.34 105.544 39.4933 105.544 38.44V37.5V29.4L107.364 29.14V28.14H101.484V29.14L103.404 29.4V38.28C103.404 39.68 103.377 40.72 103.324 41.4C103.271 42.0667 103.157 42.6533 102.984 43.16C102.771 43.8133 102.431 44.36 101.964 44.8ZM109.061 29.14L110.701 29.38V41.82L109.041 42.02V43H120.141L120.721 39.52L119.541 39.16L118.481 41.68L112.841 41.88V35.92L116.181 35.98L116.461 37.7H117.561V33.1H116.461L116.181 34.76L112.841 34.82V29.18L117.801 29.3L118.381 31.24H119.521L119.241 28.14H109.061V29.14ZM124.948 42.28C125.988 42.9067 127.242 43.22 128.708 43.22C129.375 43.22 129.928 43.1733 130.368 43.08C130.822 43 131.288 42.8867 131.768 42.74C132.315 42.5667 132.728 42.4733 133.008 42.46L133.488 39.62L132.228 39.46L131.388 41.42C131.122 41.6467 130.795 41.82 130.408 41.94C130.035 42.06 129.495 42.12 128.788 42.12C127.788 42.12 126.948 41.82 126.268 41.22C125.588 40.6067 125.082 39.7867 124.748 38.76C124.415 37.7333 124.248 36.5933 124.248 35.34C124.248 34.02 124.435 32.8867 124.808 31.94C125.195 30.9933 125.722 30.28 126.388 29.8C127.055 29.3067 127.815 29.06 128.668 29.06C129.335 29.06 129.895 29.12 130.348 29.24C130.815 29.3467 131.142 29.48 131.328 29.64L131.828 32.18H133.168L133.368 28.58L132.708 28.46C131.268 28.14 130.035 27.98 129.008 27.98C127.648 27.98 126.422 28.3 125.328 28.94C124.235 29.5667 123.375 30.4533 122.748 31.6C122.122 32.7467 121.808 34.0667 121.808 35.56C121.808 37.1067 122.075 38.4533 122.608 39.6C123.142 40.7467 123.922 41.64 124.948 42.28ZM136.575 29.32L140.015 29.2V41.82L137.415 42.02V43H145.055V42.02L142.215 41.82V29.2L145.675 29.32L146.335 33.5H147.595L147.355 28.14H134.895L134.555 33.5H135.875L136.575 29.32ZM153.749 29.14L155.389 29.38V41.82L153.729 42.02V43H156.389C156.589 43 157.209 43.02 158.249 43.06C158.689 43.1 159.149 43.12 159.629 43.12C161.829 43.12 163.402 42.6933 164.349 41.84C165.309 40.9867 165.789 39.8867 165.789 38.54C165.789 37.46 165.422 36.6067 164.689 35.98C163.955 35.3533 162.949 35.0533 161.669 35.08C162.615 34.9067 163.362 34.48 163.909 33.8C164.455 33.12 164.729 32.3067 164.729 31.36C164.729 30.2533 164.329 29.4133 163.529 28.84C162.742 28.2667 161.429 27.98 159.589 27.98C159.282 27.98 158.809 28.0067 158.169 28.06C157.475 28.1133 156.902 28.14 156.449 28.14H153.749V29.14ZM158.649 34.72C158.075 34.72 157.695 34.7133 157.509 34.7V29.14L157.929 29.1C158.435 29.0467 158.929 29.02 159.409 29.02C160.569 29.02 161.389 29.24 161.869 29.68C162.349 30.1067 162.589 30.7867 162.589 31.72C162.589 32.68 162.349 33.42 161.869 33.94C161.389 34.46 160.682 34.72 159.749 34.72H158.649ZM159.589 42.04C158.509 42.04 157.815 41.9867 157.509 41.88V35.92C157.869 35.8933 158.729 35.88 160.089 35.88C161.262 35.88 162.109 36.1133 162.629 36.58C163.162 37.0467 163.429 37.7933 163.429 38.82C163.429 39.86 163.122 40.66 162.509 41.22C161.909 41.7667 160.935 42.04 159.589 42.04ZM169.78 41.6C170.713 42.64 172.16 43.16 174.12 43.16C175.76 43.16 177.073 42.6467 178.06 41.62C179.047 40.5933 179.54 39.04 179.54 36.96V29.38L181 29.14V28.14H176.34V29.14L178.02 29.4V37.06C178.02 38.6867 177.713 39.9267 177.1 40.78C176.5 41.6333 175.593 42.06 174.38 42.06C173.167 42.06 172.233 41.66 171.58 40.86C170.94 40.06 170.62 38.7533 170.62 36.94V29.4L172.32 29.14V28.14H166.98V29.14L168.4 29.38V36.72C168.4 38.92 168.86 40.5467 169.78 41.6ZM182.325 29.14L183.885 29.38V41.82L182.225 42.02V43H184.965C185.365 43 185.965 43.0267 186.765 43.08C187.538 43.1333 188.085 43.16 188.405 43.16C189.858 43.16 191.145 42.82 192.265 42.14C193.385 41.46 194.251 40.5133 194.865 39.3C195.491 38.0733 195.805 36.6733 195.805 35.1C195.805 32.8467 195.198 31.1 193.985 29.86C192.785 28.6067 190.945 27.98 188.465 27.98C188.078 27.98 187.498 28.0067 186.725 28.06C185.951 28.1133 185.358 28.14 184.945 28.14H182.325V29.14ZM187.805 42.04C187.071 42.04 186.471 41.9867 186.005 41.88V29.2C186.178 29.2 186.378 29.18 186.605 29.14C187.138 29.0867 187.598 29.06 187.985 29.06C189.825 29.06 191.198 29.6067 192.105 30.7C193.025 31.7933 193.485 33.3933 193.485 35.5C193.485 36.9 193.271 38.0933 192.845 39.08C192.418 40.0533 191.818 40.7867 191.045 41.28C190.285 41.7733 189.405 42.0267 188.405 42.04H187.805ZM197.481 29.14L199.041 29.38V41.82L197.381 42.02V43H200.121C200.521 43 201.121 43.0267 201.921 43.08C202.694 43.1333 203.241 43.16 203.561 43.16C205.014 43.16 206.301 42.82 207.421 42.14C208.541 41.46 209.408 40.5133 210.021 39.3C210.648 38.0733 210.961 36.6733 210.961 35.1C210.961 32.8467 210.354 31.1 209.141 29.86C207.941 28.6067 206.101 27.98 203.621 27.98C203.234 27.98 202.654 28.0067 201.881 28.06C201.108 28.1133 200.514 28.14 200.101 28.14H197.481V29.14ZM202.961 42.04C202.228 42.04 201.628 41.9867 201.161 41.88V29.2C201.334 29.2 201.534 29.18 201.761 29.14C202.294 29.0867 202.754 29.06 203.141 29.06C204.981 29.06 206.354 29.6067 207.261 30.7C208.181 31.7933 208.641 33.3933 208.641 35.5C208.641 36.9 208.428 38.0933 208.001 39.08C207.574 40.0533 206.974 40.7867 206.201 41.28C205.441 41.7733 204.561 42.0267 203.561 42.04H202.961ZM212.577 29.4L217.077 37.22V41.82L214.897 42.02V43H221.537V42.02L219.297 41.8V37.2L223.477 29.38L224.777 29.14V28.14H220.217V29.14L221.857 29.38L219.197 34.74L218.477 36.26L217.837 34.74L215.017 29.38L216.597 29.14V28.14H211.377V29.14L212.577 29.4Z" fill="#060707"/>
</svg>
